<svg width="348" height="306" viewBox="0 0 348 306" fill="none" xmlns="http://www.w3.org/2000/svg">
<path d="M196.158 111.999L283.158 102.499V45.4995C283.158 37.0995 273.825 31.9995 269.158 30.4995C226.659 30.4094 160.383 30.2999 106.658 30.2813C60.9375 30.2655 24.3073 30.3156 19.158 30.4995C7.95804 30.8995 2.8247 40.6661 1.65804 45.4995V102.499L87.658 111.999L81.158 105.499L110.658 111.999L89.658 88.4995L118.158 105.499L104.158 74.9995L127.158 99.4995L123.158 66.9995L136.658 96.4995L141.658 62.9995L146.658 96.4995L162.158 66.9995L157.658 99.4995L179.658 74.9995L165.158 105.499L196.158 88.4995L172.158 111.999L204.158 105.499L196.158 111.999Z" fill="#313131"/>
<path d="M207.158 169.999C193.558 200.799 201.491 221.499 207.158 227.999L14.658 228.499C13.9914 228.666 11.258 227.999 5.65804 223.999C0.0580397 219.999 -0.34196 213.999 0.15804 211.499V113.999L102.158 133.499L73.658 146.499L104.658 143.499L82.658 166.499L107.158 154.999L93.158 182.999L118.158 162.999L112.158 190.999L129.658 166.499V196.499L139.658 169.999L150.158 196.499V166.499L169.658 190.999L159.158 162.999L185.658 179.499L169.658 154.999L197.158 162.999L175.158 142.999H203.158L175.158 133.499L280.658 113.999V147.499C261.825 142.166 220.758 139.199 207.158 169.999Z" fill="#313131"/>
<path fill-rule="evenodd" clip-rule="evenodd" d="M302.657 242.865C303.297 242.215 303.92 241.549 304.526 240.867C305.275 240.025 305.997 239.159 306.693 238.271C307.459 237.294 308.191 236.29 308.889 235.26C309.956 233.687 310.941 232.054 311.84 230.368C315.873 222.805 318.158 214.169 318.158 204.999C318.158 175.176 293.981 150.999 264.158 150.999C234.335 150.999 210.158 175.176 210.158 204.999C210.158 234.823 234.335 258.999 264.158 258.999C268.193 258.999 272.124 258.557 275.906 257.718C278.143 257.222 280.328 256.587 282.451 255.822C283.014 255.62 283.572 255.408 284.126 255.187C285.399 254.681 286.648 254.127 287.871 253.528C289.049 252.951 290.203 252.333 291.331 251.675C291.338 251.671 291.344 251.667 291.351 251.663C291.78 251.412 292.206 251.156 292.628 250.894C292.75 250.818 292.872 250.741 292.993 250.665C293.096 250.599 293.2 250.533 293.303 250.467L296.658 255.499L292.658 258.999L332.158 305.999L347.658 290.499L308.158 244.499L304.158 248.499L300.967 244.511C300.984 244.495 301.001 244.479 301.017 244.463C301.575 243.942 302.122 243.409 302.657 242.865ZM281.974 243.044C276.566 245.582 270.527 246.999 264.158 246.999C240.962 246.999 222.158 228.195 222.158 204.999C222.158 181.804 240.962 162.999 264.158 162.999C287.354 162.999 306.158 181.804 306.158 204.999C306.158 212.887 303.984 220.267 300.202 226.573L299.966 226.337L281.974 243.044Z" fill="#313131"/>
<path fill-rule="evenodd" clip-rule="evenodd" d="M180.342 2.23002C183.843 4.50088 186.158 8.40756 186.158 13.5155V32.0155H172.158V14.0163L115.158 14.0155V32.0155H101.158V13.5155C101.158 11.5228 101.615 8.54396 103.28 5.81099C105.171 2.70796 108.646 0.0154544 113.658 0.0154544H171.958C174.208 -0.0924587 177.421 0.335524 180.342 2.23002Z" fill="#313131"/>
</svg>
